<svg width="700" height="160" viewBox="0 0 700 160" fill="none" xmlns="http://www.w3.org/2000/svg">
<rect x="5" y="5" width="690" height="150" rx="35" fill="white" stroke="#D11414" stroke-width="10"/>
<path d="M110.608 76.4489H103.506C103.411 75.7197 103.217 75.0616 102.923 74.4744C102.63 73.8873 102.241 73.3854 101.759 72.9688C101.276 72.5521 100.703 72.2348 100.04 72.017C99.3864 71.7898 98.6619 71.6761 97.8665 71.6761C96.4555 71.6761 95.2386 72.0218 94.2159 72.7131C93.2027 73.4044 92.4214 74.4034 91.8722 75.7102C91.3324 77.017 91.0625 78.5985 91.0625 80.4545C91.0625 82.3864 91.3371 84.0057 91.8864 85.3125C92.4451 86.6098 93.2263 87.59 94.2301 88.2528C95.2434 88.9062 96.4413 89.233 97.8239 89.233C98.6004 89.233 99.3059 89.1335 99.9403 88.9347C100.584 88.7358 101.148 88.447 101.631 88.0682C102.123 87.6799 102.526 87.2112 102.838 86.6619C103.16 86.1032 103.383 85.4735 103.506 84.7727L110.608 84.8153C110.485 86.1032 110.111 87.3722 109.486 88.6222C108.87 89.8722 108.023 91.0133 106.943 92.0455C105.864 93.0682 104.547 93.8826 102.994 94.4886C101.451 95.0947 99.6799 95.3977 97.6818 95.3977C95.0492 95.3977 92.6913 94.8201 90.608 93.6648C88.5341 92.5 86.8958 90.8049 85.6932 88.5795C84.4905 86.3542 83.8892 83.6458 83.8892 80.4545C83.8892 77.2538 84.5 74.5407 85.7216 72.3153C86.9432 70.09 88.5956 68.3996 90.679 67.2443C92.7623 66.089 95.0966 65.5114 97.6818 65.5114C99.4432 65.5114 101.072 65.7576 102.568 66.25C104.064 66.733 105.381 67.4432 106.517 68.3807C107.653 69.3087 108.577 70.4498 109.287 71.804C109.997 73.1581 110.438 74.7064 110.608 76.4489ZM117.031 65.9091H125.739L133.125 83.9205H133.466L140.852 65.9091H149.56V95H142.713V77.1307H142.472L135.483 94.8153H131.108L124.119 77.0312H123.878V95H117.031V65.9091ZM183.803 80.4545C183.803 83.6553 183.187 86.3684 181.956 88.5938C180.725 90.8191 179.059 92.5095 176.956 93.6648C174.863 94.8201 172.515 95.3977 169.911 95.3977C167.297 95.3977 164.944 94.8153 162.851 93.6506C160.758 92.4858 159.096 90.7955 157.865 88.5795C156.644 86.3542 156.033 83.6458 156.033 80.4545C156.033 77.2538 156.644 74.5407 157.865 72.3153C159.096 70.09 160.758 68.3996 162.851 67.2443C164.944 66.089 167.297 65.5114 169.911 65.5114C172.515 65.5114 174.863 66.089 176.956 67.2443C179.059 68.3996 180.725 70.09 181.956 72.3153C183.187 74.5407 183.803 77.2538 183.803 80.4545ZM176.615 80.4545C176.615 78.5606 176.345 76.9602 175.806 75.6534C175.275 74.3466 174.508 73.357 173.505 72.6847C172.51 72.0123 171.312 71.6761 169.911 71.6761C168.519 71.6761 167.321 72.0123 166.317 72.6847C165.313 73.357 164.541 74.3466 164.002 75.6534C163.471 76.9602 163.206 78.5606 163.206 80.4545C163.206 82.3485 163.471 83.9489 164.002 85.2557C164.541 86.5625 165.313 87.5521 166.317 88.2244C167.321 88.8968 168.519 89.233 169.911 89.233C171.312 89.233 172.51 88.8968 173.505 88.2244C174.508 87.5521 175.275 86.5625 175.806 85.2557C176.345 83.9489 176.615 82.3485 176.615 80.4545ZM188.028 71.6193V65.9091H212.616V71.6193H203.795V95H196.863V71.6193H188.028ZM218.45 95V65.9091H230.467C232.645 65.9091 234.525 66.3352 236.106 67.1875C237.697 68.0303 238.924 69.2093 239.785 70.7244C240.647 72.2301 241.078 73.982 241.078 75.9801C241.078 77.9877 240.638 79.7443 239.757 81.25C238.886 82.7462 237.64 83.9062 236.021 84.7301C234.402 85.554 232.48 85.9659 230.254 85.9659H222.839V80.4261H228.947C230.008 80.4261 230.893 80.2415 231.604 79.8722C232.323 79.5028 232.868 78.9867 233.237 78.3239C233.606 77.6515 233.791 76.8703 233.791 75.9801C233.791 75.0805 233.606 74.304 233.237 73.6506C232.868 72.9877 232.323 72.4763 231.604 72.1165C230.884 71.7566 229.998 71.5767 228.947 71.5767H225.481V95H218.45ZM246.944 95V65.9091H267.228V71.6193H253.975V77.5852H266.191V83.3097H253.975V89.2898H267.228V95H246.944ZM273.08 71.6193V65.9091H297.668V71.6193H288.847V95H281.915V71.6193H273.08ZM308.033 76.1648H314.51C316.887 76.1648 318.952 76.5483 320.703 77.3153C322.455 78.0824 323.809 79.1619 324.766 80.554C325.732 81.946 326.215 83.5843 326.215 85.4688C326.215 87.3532 325.732 89.0104 324.766 90.4403C323.809 91.8703 322.455 92.9877 320.703 93.7926C318.952 94.5975 316.887 95 314.51 95H303.644V65.9091H310.661V89.4318H314.51C315.533 89.4318 316.395 89.2566 317.095 88.9062C317.806 88.5464 318.341 88.0634 318.701 87.4574C319.07 86.8419 319.25 86.16 319.24 85.4119C319.25 84.3324 318.847 83.4328 318.033 82.7131C317.219 81.9839 316.044 81.6193 314.51 81.6193H308.033V76.1648ZM370.042 65.9091V95H363.11V71.5341H352.314V95H345.383V65.9091H370.042ZM405.347 80.4545C405.347 83.6553 404.731 86.3684 403.5 88.5938C402.269 90.8191 400.602 92.5095 398.5 93.6648C396.407 94.8201 394.059 95.3977 391.455 95.3977C388.841 95.3977 386.488 94.8153 384.395 93.6506C382.302 92.4858 380.64 90.7955 379.409 88.5795C378.188 86.3542 377.577 83.6458 377.577 80.4545C377.577 77.2538 378.188 74.5407 379.409 72.3153C380.64 70.09 382.302 68.3996 384.395 67.2443C386.488 66.089 388.841 65.5114 391.455 65.5114C394.059 65.5114 396.407 66.089 398.5 67.2443C400.602 68.3996 402.269 70.09 403.5 72.3153C404.731 74.5407 405.347 77.2538 405.347 80.4545ZM398.159 80.4545C398.159 78.5606 397.889 76.9602 397.349 75.6534C396.819 74.3466 396.052 73.357 395.048 72.6847C394.054 72.0123 392.856 71.6761 391.455 71.6761C390.063 71.6761 388.865 72.0123 387.861 72.6847C386.857 73.357 386.085 74.3466 385.545 75.6534C385.015 76.9602 384.75 78.5606 384.75 80.4545C384.75 82.3485 385.015 83.9489 385.545 85.2557C386.085 86.5625 386.857 87.5521 387.861 88.2244C388.865 88.8968 390.063 89.233 391.455 89.233C392.856 89.233 394.054 88.8968 395.048 88.2244C396.052 87.5521 396.819 86.5625 397.349 85.2557C397.889 83.9489 398.159 82.3485 398.159 80.4545ZM410.587 102.003V89.517H412.59C413.263 89.0625 413.878 88.428 414.437 87.6136C414.996 86.7898 415.474 85.6345 415.872 84.1477C416.269 82.6515 416.553 80.6771 416.724 78.2244L417.633 65.9091H437.534V89.517H440.659V101.989H433.897V95H417.349V102.003H410.587ZM420.659 89.517H430.772V71.6193H423.94L423.485 78.2244C423.362 80.071 423.163 81.6998 422.889 83.1108C422.614 84.5218 422.287 85.7528 421.909 86.804C421.53 87.8456 421.113 88.75 420.659 89.517ZM446.283 95V65.9091H458.3C460.478 65.9091 462.358 66.3352 463.939 67.1875C465.53 68.0303 466.756 69.2093 467.618 70.7244C468.48 72.2301 468.911 73.982 468.911 75.9801C468.911 77.9877 468.47 79.7443 467.59 81.25C466.719 82.7462 465.473 83.9062 463.854 84.7301C462.235 85.554 460.312 85.9659 458.087 85.9659H450.672V80.4261H456.78C457.841 80.4261 458.726 80.2415 459.436 79.8722C460.156 79.5028 460.701 78.9867 461.07 78.3239C461.439 77.6515 461.624 76.8703 461.624 75.9801C461.624 75.0805 461.439 74.304 461.07 73.6506C460.701 72.9877 460.156 72.4763 459.436 72.1165C458.717 71.7566 457.831 71.5767 456.78 71.5767H453.314V95H446.283ZM502.234 80.4545C502.234 83.6553 501.619 86.3684 500.388 88.5938C499.156 90.8191 497.49 92.5095 495.388 93.6648C493.295 94.8201 490.946 95.3977 488.342 95.3977C485.728 95.3977 483.375 94.8153 481.282 93.6506C479.19 92.4858 477.528 90.7955 476.297 88.5795C475.075 86.3542 474.464 83.6458 474.464 80.4545C474.464 77.2538 475.075 74.5407 476.297 72.3153C477.528 70.09 479.19 68.3996 481.282 67.2443C483.375 66.089 485.728 65.5114 488.342 65.5114C490.946 65.5114 493.295 66.089 495.388 67.2443C497.49 68.3996 499.156 70.09 500.388 72.3153C501.619 74.5407 502.234 77.2538 502.234 80.4545ZM495.047 80.4545C495.047 78.5606 494.777 76.9602 494.237 75.6534C493.707 74.3466 492.94 73.357 491.936 72.6847C490.941 72.0123 489.744 71.6761 488.342 71.6761C486.95 71.6761 485.752 72.0123 484.748 72.6847C483.745 73.357 482.973 74.3466 482.433 75.6534C481.903 76.9602 481.638 78.5606 481.638 80.4545C481.638 82.3485 481.903 83.9489 482.433 85.2557C482.973 86.5625 483.745 87.5521 484.748 88.2244C485.752 88.8968 486.95 89.233 488.342 89.233C489.744 89.233 490.941 88.8968 491.936 88.2244C492.94 87.5521 493.707 86.5625 494.237 85.2557C494.777 83.9489 495.047 82.3485 495.047 80.4545ZM508.739 95V65.9091H528.611V71.6193H515.77V76.1648H519.606C521.973 76.1648 524.033 76.5483 525.785 77.3153C527.546 78.0824 528.905 79.1619 529.861 80.554C530.827 81.946 531.31 83.5843 531.31 85.4688C531.31 87.3532 530.827 89.0104 529.861 90.4403C528.905 91.8703 527.546 92.9877 525.785 93.7926C524.033 94.5975 521.973 95 519.606 95H508.739ZM515.77 89.4318H519.606C520.628 89.4318 521.49 89.2566 522.191 88.9062C522.901 88.5464 523.436 88.0634 523.796 87.4574C524.165 86.8419 524.35 86.16 524.35 85.4119C524.35 84.3324 523.943 83.4328 523.128 82.7131C522.314 81.9839 521.14 81.6193 519.606 81.6193H515.77V89.4318ZM537.077 95V65.9091H544.108V77.5852H555.571V65.9091H562.588V95H555.571V83.3097H544.108V95H537.077ZM569.399 95V65.9091H589.683V71.6193H576.43V77.5852H588.646V83.3097H576.43V89.2898H589.683V95H569.399ZM596.486 95V65.9091H616.77V71.6193H603.517V77.5852H615.733V83.3097H603.517V89.2898H616.77V95H596.486Z" fill="#D11414"/>
</svg>
