<svg width="639" height="299" viewBox="0 0 639 299" fill="none" xmlns="http://www.w3.org/2000/svg">
<path d="M92.807 0.897993V84.982H106.392V132.744H85.514V103H21.593V132.744H0.715V84.982H8.58C11.2493 79.6433 13.8233 74.0187 16.302 68.108C18.7807 62.1973 21.0687 55.8577 23.166 49.089C25.3587 42.3203 27.313 34.9797 29.029 27.067C30.745 19.059 32.175 10.336 33.319 0.897993H92.807ZM50.479 18.916C49.8117 23.8733 48.8583 29.1643 47.619 34.789C46.3797 40.3183 44.902 45.9907 43.186 51.806C41.5653 57.6213 39.754 63.3413 37.752 68.966C35.75 74.5907 33.605 79.9293 31.317 84.982H71.214V18.916H50.479ZM185.138 103H126.365V0.897993H185.138V18.63H147.958V41.081H182.564V58.813H147.958V85.125H185.138V103ZM294.329 103H272.736V58.956H232.267V103H210.674V0.897993H232.267V40.938H272.736V0.897993H294.329V103ZM324.308 103V0.897993H345.901V40.08H354.481C364.11 40.08 371.975 41.4147 378.076 44.084C384.273 46.7533 388.849 50.4237 391.804 55.095C394.76 59.7663 396.237 65.105 396.237 71.111C396.237 77.7843 394.76 83.5043 391.804 88.271C388.849 93.0377 384.273 96.708 378.076 99.282C371.88 101.761 363.872 103 354.052 103H324.308ZM353.194 85.268C359.772 85.268 364.92 84.2193 368.638 82.122C372.452 80.0247 374.358 76.3543 374.358 71.111C374.358 67.4883 373.405 64.7237 371.498 62.817C369.687 60.9103 367.065 59.6233 363.633 58.956C360.297 58.1933 356.245 57.812 351.478 57.812H345.901V85.268H353.194Z" fill="white"/>
<path d="M12.87 269V166.898H93.665V269H72.072V184.916H34.463V269H12.87ZM216.376 217.806C216.376 225.719 215.375 232.916 213.373 239.399C211.466 245.786 208.511 251.316 204.507 255.987C200.598 260.658 195.545 264.233 189.349 266.712C183.247 269.191 176.05 270.43 167.756 270.43C159.462 270.43 152.216 269.191 146.02 266.712C139.918 264.138 134.866 260.563 130.862 255.987C126.953 251.316 123.998 245.739 121.996 239.256C120.089 232.773 119.136 225.576 119.136 217.663C119.136 207.081 120.852 197.881 124.284 190.064C127.811 182.247 133.15 176.193 140.3 171.903C147.545 167.518 156.745 165.325 167.899 165.325C178.957 165.325 188.062 167.518 195.212 171.903C202.362 176.193 207.653 182.294 211.085 190.207C214.612 198.024 216.376 207.224 216.376 217.806ZM141.873 217.806C141.873 224.956 142.778 231.105 144.59 236.253C146.401 241.401 149.213 245.357 153.027 248.122C156.84 250.887 161.75 252.269 167.756 252.269C173.952 252.269 178.91 250.887 182.628 248.122C186.441 245.357 189.206 241.401 190.922 236.253C192.733 231.105 193.639 224.956 193.639 217.806C193.639 207.033 191.637 198.596 187.633 192.495C183.629 186.394 177.051 183.343 167.899 183.343C161.797 183.343 156.84 184.725 153.027 187.49C149.213 190.255 146.401 194.211 144.59 199.359C142.778 204.507 141.873 210.656 141.873 217.806ZM241.815 269V166.898H306.308V184.773H263.408V206.08H271.988C281.617 206.08 289.482 207.415 295.583 210.084C301.78 212.753 306.356 216.424 309.311 221.095C312.267 225.766 313.744 231.105 313.744 237.111C313.744 243.784 312.267 249.504 309.311 254.271C306.356 259.038 301.78 262.708 295.583 265.282C289.387 267.761 281.379 269 271.559 269H241.815ZM270.701 251.268C277.279 251.268 282.427 250.219 286.145 248.122C289.959 246.025 291.865 242.354 291.865 237.111C291.865 233.488 290.912 230.724 289.005 228.817C287.194 226.91 284.572 225.623 281.14 224.956C277.804 224.193 273.752 223.812 268.985 223.812H263.408V251.268H270.701ZM396.069 269H337.296V166.898H396.069V184.63H358.889V207.081H393.495V224.813H358.889V251.125H396.069V269ZM501.541 166.898V250.982H515.126V298.744H494.248V269H430.327V298.744H409.449V250.982H417.314C419.984 245.643 422.558 240.019 425.036 234.108C427.515 228.197 429.803 221.858 431.9 215.089C434.093 208.32 436.047 200.98 437.763 193.067C439.479 185.059 440.909 176.336 442.053 166.898H501.541ZM459.213 184.916C458.546 189.873 457.593 195.164 456.353 200.789C455.114 206.318 453.636 211.991 451.92 217.806C450.3 223.621 448.488 229.341 446.486 234.966C444.484 240.591 442.339 245.929 440.051 250.982H479.948V184.916H459.213ZM535.099 269V166.898H556.692V206.08H563.699C573.137 206.08 580.907 207.415 587.008 210.084C593.11 212.753 597.59 216.424 600.45 221.095C603.406 225.766 604.883 231.105 604.883 237.111C604.883 243.784 603.406 249.504 600.45 254.271C597.495 259.038 592.919 262.708 586.722 265.282C580.621 267.761 572.708 269 562.984 269H535.099ZM562.412 251.268C568.8 251.268 573.805 250.219 577.427 248.122C581.145 246.025 583.004 242.354 583.004 237.111C583.004 233.488 582.146 230.724 580.43 228.817C578.81 226.91 576.379 225.623 573.137 224.956C569.896 224.193 565.987 223.812 561.411 223.812H556.692V251.268H562.412ZM617.324 269V166.898H638.917V269H617.324Z" fill="#D11414"/>
<path d="M92.807 0.897993H95.807V-2.10201H92.807V0.897993ZM92.807 84.982H89.807V87.982H92.807V84.982ZM106.392 84.982H109.392V81.982H106.392V84.982ZM106.392 132.744V135.744H109.392V132.744H106.392ZM85.514 132.744H82.514V135.744H85.514V132.744ZM85.514 103H88.514V100H85.514V103ZM21.593 103V100H18.593V103H21.593ZM21.593 132.744V135.744H24.593V132.744H21.593ZM0.715 132.744H-2.285V135.744H0.715V132.744ZM0.715 84.982V81.982H-2.285V84.982H0.715ZM8.58 84.982V87.982H10.4341L11.2633 86.3236L8.58 84.982ZM16.302 68.108L19.0686 69.2682L19.0686 69.2682L16.302 68.108ZM23.166 49.089L20.312 48.1645L20.3061 48.1827L20.3004 48.2011L23.166 49.089ZM29.029 27.067L31.9609 27.7028L31.9624 27.6956L29.029 27.067ZM33.319 0.897993V-2.10201H30.6607L30.3408 0.537L33.319 0.897993ZM50.479 18.916V15.916H47.8558L47.5058 18.5158L50.479 18.916ZM47.619 34.789L50.5464 35.4451L50.5487 35.4345L47.619 34.789ZM43.186 51.806L40.3087 50.9569L40.3022 50.9787L40.2961 51.0006L43.186 51.806ZM37.752 68.966L34.9257 67.96L34.9257 67.96L37.752 68.966ZM31.317 84.982L28.5841 83.7445L26.6653 87.982H31.317V84.982ZM71.214 84.982V87.982H74.214V84.982H71.214ZM71.214 18.916H74.214V15.916H71.214V18.916ZM89.807 0.897993V84.982H95.807V0.897993H89.807ZM92.807 87.982H106.392V81.982H92.807V87.982ZM103.392 84.982V132.744H109.392V84.982H103.392ZM106.392 129.744H85.514V135.744H106.392V129.744ZM88.514 132.744V103H82.514V132.744H88.514ZM85.514 100H21.593V106H85.514V100ZM18.593 103V132.744H24.593V103H18.593ZM21.593 129.744H0.715V135.744H21.593V129.744ZM3.715 132.744V84.982H-2.285V132.744H3.715ZM0.715 87.982H8.58V81.982H0.715V87.982ZM11.2633 86.3236C13.9645 80.9213 16.566 75.2358 19.0686 69.2682L13.5354 66.9478C11.0806 72.8015 8.5342 78.3654 5.89672 83.6404L11.2633 86.3236ZM19.0686 69.2682C21.5883 63.2597 23.9086 56.8284 26.0316 49.9769L20.3004 48.2011C18.2287 54.8869 15.9731 61.135 13.5354 66.9478L19.0686 69.2682ZM26.02 50.0135C28.2472 43.1381 30.2265 35.6999 31.9608 27.7028L26.0972 26.4312C24.3995 34.2594 22.4701 41.5026 20.312 48.1645L26.02 50.0135ZM31.9624 27.6956C33.7001 19.5864 35.144 10.7729 36.2972 1.25899L30.3408 0.537C29.206 9.89907 27.7899 18.5316 26.0956 26.4384L31.9624 27.6956ZM33.319 3.89799H92.807V-2.10201H33.319V3.89799ZM47.5058 18.5158C46.8511 23.3796 45.9133 28.5881 44.6893 34.1435L50.5487 35.4345C51.8033 29.7406 52.7723 24.3671 53.4522 19.3162L47.5058 18.5158ZM44.6916 34.1329C43.4678 39.593 42.0071 45.201 40.3087 50.9569L46.0633 52.6551C47.7969 46.7804 49.2915 41.0436 50.5464 35.4451L44.6916 34.1329ZM40.2961 51.0006C38.6941 56.7491 36.9039 62.4022 34.9257 67.96L40.5783 69.972C42.6041 64.2805 44.4366 58.4935 46.0759 52.6114L40.2961 51.0006ZM34.9257 67.96C32.9495 73.5121 30.8353 78.7731 28.5841 83.7445L34.0499 86.2195C36.3747 81.0855 38.5505 75.6692 40.5783 69.972L34.9257 67.96ZM31.317 87.982H71.214V81.982H31.317V87.982ZM74.214 84.982V18.916H68.214V84.982H74.214ZM71.214 15.916H50.479V21.916H71.214V15.916ZM185.138 103V106H188.138V103H185.138ZM126.365 103H123.365V106H126.365V103ZM126.365 0.897993V-2.10201H123.365V0.897993H126.365ZM185.138 0.897993H188.138V-2.10201H185.138V0.897993ZM185.138 18.63V21.63H188.138V18.63H185.138ZM147.958 18.63V15.63H144.958V18.63H147.958ZM147.958 41.081H144.958V44.081H147.958V41.081ZM182.564 41.081H185.564V38.081H182.564V41.081ZM182.564 58.813V61.813H185.564V58.813H182.564ZM147.958 58.813V55.813H144.958V58.813H147.958ZM147.958 85.125H144.958V88.125H147.958V85.125ZM185.138 85.125H188.138V82.125H185.138V85.125ZM185.138 100H126.365V106H185.138V100ZM129.365 103V0.897993H123.365V103H129.365ZM126.365 3.89799H185.138V-2.10201H126.365V3.89799ZM182.138 0.897993V18.63H188.138V0.897993H182.138ZM185.138 15.63H147.958V21.63H185.138V15.63ZM144.958 18.63V41.081H150.958V18.63H144.958ZM147.958 44.081H182.564V38.081H147.958V44.081ZM179.564 41.081V58.813H185.564V41.081H179.564ZM182.564 55.813H147.958V61.813H182.564V55.813ZM144.958 58.813V85.125H150.958V58.813H144.958ZM147.958 88.125H185.138V82.125H147.958V88.125ZM182.138 85.125V103H188.138V85.125H182.138ZM294.329 103V106H297.329V103H294.329ZM272.736 103H269.736V106H272.736V103ZM272.736 58.956H275.736V55.956H272.736V58.956ZM232.267 58.956V55.956H229.267V58.956H232.267ZM232.267 103V106H235.267V103H232.267ZM210.674 103H207.674V106H210.674V103ZM210.674 0.897993V-2.10201H207.674V0.897993H210.674ZM232.267 0.897993H235.267V-2.10201H232.267V0.897993ZM232.267 40.938H229.267V43.938H232.267V40.938ZM272.736 40.938V43.938H275.736V40.938H272.736ZM272.736 0.897993V-2.10201H269.736V0.897993H272.736ZM294.329 0.897993H297.329V-2.10201H294.329V0.897993ZM294.329 100H272.736V106H294.329V100ZM275.736 103V58.956H269.736V103H275.736ZM272.736 55.956H232.267V61.956H272.736V55.956ZM229.267 58.956V103H235.267V58.956H229.267ZM232.267 100H210.674V106H232.267V100ZM213.674 103V0.897993H207.674V103H213.674ZM210.674 3.89799H232.267V-2.10201H210.674V3.89799ZM229.267 0.897993V40.938H235.267V0.897993H229.267ZM232.267 43.938H272.736V37.938H232.267V43.938ZM275.736 40.938V0.897993H269.736V40.938H275.736ZM272.736 3.89799H294.329V-2.10201H272.736V3.89799ZM291.329 0.897993V103H297.329V0.897993H291.329ZM324.308 103H321.308V106H324.308V103ZM324.308 0.897993V-2.10201H321.308V0.897993H324.308ZM345.901 0.897993H348.901V-2.10201H345.901V0.897993ZM345.901 40.08H342.901V43.08H345.901V40.08ZM378.076 44.084L376.874 46.8325L376.882 46.8359L376.889 46.8392L378.076 44.084ZM391.804 88.271L394.354 89.8518L391.804 88.271ZM378.076 99.282L379.191 102.067L379.209 102.06L379.227 102.052L378.076 99.282ZM368.638 82.122L367.193 79.4934L367.178 79.5011L367.164 79.5091L368.638 82.122ZM371.498 62.817L369.323 64.8832L369.35 64.9111L369.377 64.9383L371.498 62.817ZM363.633 58.956L362.965 61.8806L363.013 61.8915L363.061 61.9008L363.633 58.956ZM345.901 57.812V54.812H342.901V57.812H345.901ZM345.901 85.268H342.901V88.268H345.901V85.268ZM327.308 103V0.897993H321.308V103H327.308ZM324.308 3.89799H345.901V-2.10201H324.308V3.89799ZM342.901 0.897993V40.08H348.901V0.897993H342.901ZM345.901 43.08H354.481V37.08H345.901V43.08ZM354.481 43.08C363.866 43.08 371.281 44.3857 376.874 46.8325L379.279 41.3355C372.669 38.4436 364.354 37.08 354.481 37.08V43.08ZM376.889 46.8392C382.655 49.3228 386.702 52.6417 389.269 56.6989L394.34 53.4911C390.996 48.2056 385.891 44.1838 379.263 41.3288L376.889 46.8392ZM389.269 56.6989C391.895 60.849 393.237 65.6218 393.237 71.111H399.237C399.237 64.5882 397.625 58.6837 394.34 53.4911L389.269 56.6989ZM393.237 71.111C393.237 77.3329 391.864 82.4817 389.255 86.6902L394.354 89.8518C397.656 84.5269 399.237 78.2358 399.237 71.111H393.237ZM389.255 86.6902C386.691 90.8258 382.66 94.1297 376.926 96.5115L379.227 102.052C385.887 99.2863 391.007 95.2495 394.354 89.8518L389.255 86.6902ZM376.962 96.4966C371.245 98.7833 363.654 100 354.052 100V106C364.09 106 372.514 104.738 379.191 102.067L376.962 96.4966ZM354.052 100H324.308V106H354.052V100ZM353.194 88.268C360.033 88.268 365.765 87.1874 370.112 84.7349L367.164 79.5091C364.076 81.2513 359.511 82.268 353.194 82.268V88.268ZM370.084 84.7506C375.069 82.009 377.358 77.1818 377.358 71.111H371.358C371.358 75.5269 369.834 78.0404 367.193 79.4934L370.084 84.7506ZM377.358 71.111C377.358 66.9743 376.261 63.3369 373.62 60.6957L369.377 64.9383C370.549 66.1104 371.358 68.0024 371.358 71.111H377.358ZM373.673 60.7507C371.311 58.2639 368.051 56.7588 364.206 56.0111L363.061 61.9008C366.08 62.4878 368.063 63.5568 369.323 64.8832L373.673 60.7507ZM364.302 56.0314C360.679 55.2034 356.389 54.812 351.478 54.812V60.812C356.101 60.812 359.914 61.1833 362.965 61.8806L364.302 56.0314ZM351.478 54.812H345.901V60.812H351.478V54.812ZM342.901 57.812V85.268H348.901V57.812H342.901ZM345.901 88.268H353.194V82.268H345.901V88.268ZM12.87 269H9.87V272H12.87V269ZM12.87 166.898V163.898H9.87V166.898H12.87ZM93.665 166.898H96.665V163.898H93.665V166.898ZM93.665 269V272H96.665V269H93.665ZM72.072 269H69.072V272H72.072V269ZM72.072 184.916H75.072V181.916H72.072V184.916ZM34.463 184.916V181.916H31.463V184.916H34.463ZM34.463 269V272H37.463V269H34.463ZM15.87 269V166.898H9.87V269H15.87ZM12.87 169.898H93.665V163.898H12.87V169.898ZM90.665 166.898V269H96.665V166.898H90.665ZM93.665 266H72.072V272H93.665V266ZM75.072 269V184.916H69.072V269H75.072ZM72.072 181.916H34.463V187.916H72.072V181.916ZM31.463 184.916V269H37.463V184.916H31.463ZM34.463 266H12.87V272H34.463V266ZM213.373 239.399L210.506 238.514L210.502 238.527L210.498 238.541L213.373 239.399ZM204.507 255.987L202.229 254.035L202.217 254.048L202.206 254.062L204.507 255.987ZM189.349 266.712L188.235 263.927L188.227 263.93L188.22 263.933L189.349 266.712ZM146.02 266.712L144.854 269.476L144.88 269.487L144.906 269.497L146.02 266.712ZM130.862 255.987L128.561 257.912L128.582 257.938L128.604 257.963L130.862 255.987ZM121.996 239.256L119.118 240.102L119.123 240.122L119.129 240.141L121.996 239.256ZM124.284 190.064L121.549 188.83L121.543 188.844L121.537 188.858L124.284 190.064ZM140.3 171.903L141.843 174.475L141.853 174.469L140.3 171.903ZM195.212 171.903L193.643 174.46L193.656 174.468L193.668 174.475L195.212 171.903ZM211.085 190.207L208.333 191.401L208.341 191.421L208.35 191.441L211.085 190.207ZM153.027 248.122L154.788 245.693L154.788 245.693L153.027 248.122ZM182.628 248.122L180.867 245.693L180.852 245.704L180.838 245.715L182.628 248.122ZM190.922 236.253L188.092 235.257L188.084 235.281L188.076 235.304L190.922 236.253ZM187.633 192.495L185.125 194.141L185.125 194.141L187.633 192.495ZM153.027 187.49L151.266 185.061L151.266 185.061L153.027 187.49ZM144.59 199.359L141.76 198.363L144.59 199.359ZM213.376 217.806C213.376 225.467 212.406 232.361 210.506 238.514L216.239 240.284C218.343 233.472 219.376 225.97 219.376 217.806H213.376ZM210.498 238.541C208.701 244.56 205.937 249.708 202.229 254.035L206.785 257.939C211.084 252.923 214.231 247.013 216.247 240.257L210.498 238.541ZM202.206 254.062C198.645 258.317 194.016 261.614 188.235 263.927L190.463 269.497C197.075 266.853 202.551 263 206.808 257.912L202.206 254.062ZM188.22 263.933C182.557 266.233 175.759 267.43 167.756 267.43V273.43C176.34 273.43 183.938 272.148 190.478 269.491L188.22 263.933ZM167.756 267.43C159.754 267.43 152.902 266.234 147.134 263.927L144.906 269.497C151.531 272.148 159.17 273.43 167.756 273.43V267.43ZM147.186 263.948C141.466 261.535 136.798 258.216 133.119 254.011L128.604 257.963C132.933 262.91 138.371 266.741 144.854 269.476L147.186 263.948ZM133.163 254.062C129.537 249.729 126.76 244.516 124.862 238.371L119.129 240.141C121.236 246.961 124.369 252.902 128.561 257.912L133.163 254.062ZM124.874 238.41C123.06 232.244 122.136 225.337 122.136 217.663H116.136C116.136 225.815 117.118 233.303 119.118 240.102L124.874 238.41ZM122.136 217.663C122.136 207.4 123.8 198.628 127.031 191.27L121.537 188.858C117.903 197.135 116.136 206.762 116.136 217.663H122.136ZM127.018 191.298C130.302 184.021 135.233 178.442 141.843 174.475L138.756 169.331C131.066 173.944 125.32 180.473 121.549 188.83L127.018 191.298ZM141.853 174.469C148.504 170.444 157.123 168.325 167.899 168.325V162.325C156.366 162.325 146.586 164.591 138.746 169.336L141.853 174.469ZM167.899 168.325C178.576 168.325 187.093 170.443 193.643 174.46L196.78 169.346C189.03 164.592 179.339 162.325 167.899 162.325V168.325ZM193.668 174.475C200.262 178.432 205.141 184.041 208.333 191.401L213.837 189.013C210.165 180.547 204.462 173.954 196.755 169.331L193.668 174.475ZM208.35 191.441C211.667 198.791 213.376 207.552 213.376 217.806H219.376C219.376 206.896 217.558 197.258 213.819 188.973L208.35 191.441ZM138.873 217.806C138.873 225.196 139.807 231.699 141.76 237.249L147.42 235.257C145.75 230.511 144.873 224.716 144.873 217.806H138.873ZM141.76 237.249C143.74 242.878 146.884 247.374 151.266 250.551L154.788 245.693C151.543 243.341 149.062 239.924 147.42 235.257L141.76 237.249ZM151.266 250.551C155.717 253.778 161.292 255.269 167.756 255.269V249.269C162.207 249.269 157.964 247.996 154.788 245.693L151.266 250.551ZM167.756 255.269C174.382 255.269 180.033 253.79 184.418 250.529L180.838 245.715C177.787 247.983 173.523 249.269 167.756 249.269V255.269ZM184.389 250.551C188.784 247.364 191.885 242.851 193.768 237.202L188.076 235.304C186.527 239.951 184.098 243.35 180.867 245.693L184.389 250.551ZM193.752 237.249C195.704 231.699 196.639 225.196 196.639 217.806H190.639C190.639 224.716 189.762 230.511 188.092 235.257L193.752 237.249ZM196.639 217.806C196.639 206.711 194.585 197.62 190.141 190.849L185.125 194.141C188.689 199.572 190.639 207.356 190.639 217.806H196.639ZM190.141 190.849C185.439 183.685 177.77 180.343 167.899 180.343V186.343C176.332 186.343 181.818 189.103 185.125 194.141L190.141 190.849ZM167.899 180.343C161.352 180.343 155.724 181.829 151.266 185.061L154.788 189.919C157.956 187.622 162.243 186.343 167.899 186.343V180.343ZM151.266 185.061C146.884 188.238 143.74 192.734 141.76 198.363L147.42 200.355C149.062 195.688 151.543 192.271 154.788 189.919L151.266 185.061ZM141.76 198.363C139.807 203.913 138.873 210.416 138.873 217.806H144.873C144.873 210.896 145.75 205.101 147.42 200.355L141.76 198.363ZM241.815 269H238.815V272H241.815V269ZM241.815 166.898V163.898H238.815V166.898H241.815ZM306.308 166.898H309.308V163.898H306.308V166.898ZM306.308 184.773V187.773H309.308V184.773H306.308ZM263.408 184.773V181.773H260.408V184.773H263.408ZM263.408 206.08H260.408V209.08H263.408V206.08ZM295.583 210.084L294.381 212.832L294.389 212.836L294.396 212.839L295.583 210.084ZM309.311 254.271L311.861 255.852L309.311 254.271ZM295.583 265.282L296.697 268.067L296.716 268.06L296.734 268.052L295.583 265.282ZM286.145 248.122L284.699 245.493L284.685 245.501L284.671 245.509L286.145 248.122ZM289.005 228.817L286.83 230.883L286.857 230.911L286.884 230.938L289.005 228.817ZM281.14 224.956L280.472 227.881L280.52 227.891L280.568 227.901L281.14 224.956ZM263.408 223.812V220.812H260.408V223.812H263.408ZM263.408 251.268H260.408V254.268H263.408V251.268ZM244.815 269V166.898H238.815V269H244.815ZM241.815 169.898H306.308V163.898H241.815V169.898ZM303.308 166.898V184.773H309.308V166.898H303.308ZM306.308 181.773H263.408V187.773H306.308V181.773ZM260.408 184.773V206.08H266.408V184.773H260.408ZM263.408 209.08H271.988V203.08H263.408V209.08ZM271.988 209.08C281.373 209.08 288.788 210.386 294.381 212.832L296.786 207.336C290.176 204.444 281.861 203.08 271.988 203.08V209.08ZM294.396 212.839C300.162 215.323 304.209 218.642 306.776 222.699L311.846 219.491C308.503 214.206 303.398 210.184 296.77 207.329L294.396 212.839ZM306.776 222.699C309.402 226.849 310.744 231.622 310.744 237.111H316.744C316.744 230.588 315.132 224.684 311.846 219.491L306.776 222.699ZM310.744 237.111C310.744 243.333 309.371 248.482 306.762 252.69L311.861 255.852C315.162 250.527 316.744 244.236 316.744 237.111H310.744ZM306.762 252.69C304.197 256.826 300.166 260.13 294.432 262.512L296.734 268.052C303.393 265.286 308.514 261.25 311.861 255.852L306.762 252.69ZM294.469 262.497C288.752 264.783 281.161 266 271.559 266V272C281.596 272 290.021 270.738 296.697 268.067L294.469 262.497ZM271.559 266H241.815V272H271.559V266ZM270.701 254.268C277.54 254.268 283.272 253.187 287.619 250.735L284.671 245.509C281.583 247.251 277.018 248.268 270.701 248.268V254.268ZM287.591 250.751C292.576 248.009 294.865 243.182 294.865 237.111H288.865C288.865 241.527 287.341 244.04 284.699 245.493L287.591 250.751ZM294.865 237.111C294.865 232.974 293.768 229.337 291.127 226.696L286.884 230.938C288.056 232.11 288.865 234.002 288.865 237.111H294.865ZM291.18 226.751C288.818 224.264 285.558 222.759 281.713 222.011L280.568 227.901C283.587 228.488 285.57 229.557 286.83 230.883L291.18 226.751ZM281.809 222.031C278.186 221.203 273.896 220.812 268.985 220.812V226.812C273.608 226.812 277.421 227.183 280.472 227.881L281.809 222.031ZM268.985 220.812H263.408V226.812H268.985V220.812ZM260.408 223.812V251.268H266.408V223.812H260.408ZM263.408 254.268H270.701V248.268H263.408V254.268ZM396.069 269V272H399.069V269H396.069ZM337.296 269H334.296V272H337.296V269ZM337.296 166.898V163.898H334.296V166.898H337.296ZM396.069 166.898H399.069V163.898H396.069V166.898ZM396.069 184.63V187.63H399.069V184.63H396.069ZM358.889 184.63V181.63H355.889V184.63H358.889ZM358.889 207.081H355.889V210.081H358.889V207.081ZM393.495 207.081H396.495V204.081H393.495V207.081ZM393.495 224.813V227.813H396.495V224.813H393.495ZM358.889 224.813V221.813H355.889V224.813H358.889ZM358.889 251.125H355.889V254.125H358.889V251.125ZM396.069 251.125H399.069V248.125H396.069V251.125ZM396.069 266H337.296V272H396.069V266ZM340.296 269V166.898H334.296V269H340.296ZM337.296 169.898H396.069V163.898H337.296V169.898ZM393.069 166.898V184.63H399.069V166.898H393.069ZM396.069 181.63H358.889V187.63H396.069V181.63ZM355.889 184.63V207.081H361.889V184.63H355.889ZM358.889 210.081H393.495V204.081H358.889V210.081ZM390.495 207.081V224.813H396.495V207.081H390.495ZM393.495 221.813H358.889V227.813H393.495V221.813ZM355.889 224.813V251.125H361.889V224.813H355.889ZM358.889 254.125H396.069V248.125H358.889V254.125ZM393.069 251.125V269H399.069V251.125H393.069ZM501.541 166.898H504.541V163.898H501.541V166.898ZM501.541 250.982H498.541V253.982H501.541V250.982ZM515.126 250.982H518.126V247.982H515.126V250.982ZM515.126 298.744V301.744H518.126V298.744H515.126ZM494.248 298.744H491.248V301.744H494.248V298.744ZM494.248 269H497.248V266H494.248V269ZM430.327 269V266H427.327V269H430.327ZM430.327 298.744V301.744H433.327V298.744H430.327ZM409.449 298.744H406.449V301.744H409.449V298.744ZM409.449 250.982V247.982H406.449V250.982H409.449ZM417.314 250.982V253.982H419.168L419.998 252.324L417.314 250.982ZM425.036 234.108L427.803 235.268L427.803 235.268L425.036 234.108ZM431.9 215.089L429.046 214.164L429.04 214.183L429.035 214.201L431.9 215.089ZM437.763 193.067L440.695 193.703L440.697 193.696L437.763 193.067ZM442.053 166.898V163.898H439.395L439.075 166.537L442.053 166.898ZM459.213 184.916V181.916H456.59L456.24 184.516L459.213 184.916ZM456.353 200.789L459.281 201.445L459.283 201.435L456.353 200.789ZM451.92 217.806L449.043 216.957L449.036 216.979L449.03 217.001L451.92 217.806ZM446.486 234.966L443.66 233.96L443.66 233.96L446.486 234.966ZM440.051 250.982L437.318 249.744L435.399 253.982H440.051V250.982ZM479.948 250.982V253.982H482.948V250.982H479.948ZM479.948 184.916H482.948V181.916H479.948V184.916ZM498.541 166.898V250.982H504.541V166.898H498.541ZM501.541 253.982H515.126V247.982H501.541V253.982ZM512.126 250.982V298.744H518.126V250.982H512.126ZM515.126 295.744H494.248V301.744H515.126V295.744ZM497.248 298.744V269H491.248V298.744H497.248ZM494.248 266H430.327V272H494.248V266ZM427.327 269V298.744H433.327V269H427.327ZM430.327 295.744H409.449V301.744H430.327V295.744ZM412.449 298.744V250.982H406.449V298.744H412.449ZM409.449 253.982H417.314V247.982H409.449V253.982ZM419.998 252.324C422.699 246.921 425.3 241.236 427.803 235.268L422.27 232.948C419.815 238.802 417.268 244.365 414.631 249.64L419.998 252.324ZM427.803 235.268C430.322 229.26 432.643 222.828 434.766 215.977L429.035 214.201C426.963 220.887 424.707 227.135 422.27 232.948L427.803 235.268ZM434.754 216.014C436.981 209.138 438.961 201.7 440.695 193.703L434.831 192.431C433.134 200.259 431.204 207.503 429.046 214.164L434.754 216.014ZM440.697 193.696C442.434 185.586 443.878 176.773 445.031 167.259L439.075 166.537C437.94 175.899 436.524 184.532 434.83 192.438L440.697 193.696ZM442.053 169.898H501.541V163.898H442.053V169.898ZM456.24 184.516C455.585 189.38 454.648 194.588 453.423 200.143L459.283 201.435C460.538 195.741 461.506 190.367 462.186 185.316L456.24 184.516ZM453.426 200.133C452.202 205.593 450.741 211.201 449.043 216.957L454.798 218.655C456.531 212.78 458.026 207.044 459.281 201.445L453.426 200.133ZM449.03 217.001C447.428 222.749 445.638 228.402 443.66 233.96L449.313 235.972C451.338 230.28 453.171 224.494 454.81 218.611L449.03 217.001ZM443.66 233.96C441.684 239.512 439.57 244.773 437.318 249.744L442.784 252.22C445.109 247.086 447.285 241.669 449.313 235.972L443.66 233.96ZM440.051 253.982H479.948V247.982H440.051V253.982ZM482.948 250.982V184.916H476.948V250.982H482.948ZM479.948 181.916H459.213V187.916H479.948V181.916ZM535.099 269H532.099V272H535.099V269ZM535.099 166.898V163.898H532.099V166.898H535.099ZM556.692 166.898H559.692V163.898H556.692V166.898ZM556.692 206.08H553.692V209.08H556.692V206.08ZM587.008 210.084L588.211 207.336L588.211 207.336L587.008 210.084ZM600.45 221.095L597.892 222.661L597.903 222.68L597.915 222.699L600.45 221.095ZM600.45 254.271L603 255.852L603 255.852L600.45 254.271ZM586.722 265.282L587.851 268.061L587.862 268.057L587.873 268.052L586.722 265.282ZM577.427 248.122L575.953 245.509L575.939 245.517L575.924 245.526L577.427 248.122ZM580.43 228.817L578.144 230.76L578.172 230.792L578.2 230.824L580.43 228.817ZM573.137 224.956L572.45 227.876L572.491 227.886L572.532 227.894L573.137 224.956ZM556.692 223.812V220.812H553.692V223.812H556.692ZM556.692 251.268H553.692V254.268H556.692V251.268ZM617.324 269H614.324V272H617.324V269ZM617.324 166.898V163.898H614.324V166.898H617.324ZM638.917 166.898H641.917V163.898H638.917V166.898ZM638.917 269V272H641.917V269H638.917ZM538.099 269V166.898H532.099V269H538.099ZM535.099 169.898H556.692V163.898H535.099V169.898ZM553.692 166.898V206.08H559.692V166.898H553.692ZM556.692 209.08H563.699V203.08H556.692V209.08ZM563.699 209.08C572.884 209.08 580.207 210.383 585.806 212.832L588.211 207.336C581.607 204.446 573.391 203.08 563.699 203.08V209.08ZM585.806 212.832C591.468 215.31 595.416 218.618 597.892 222.661L603.009 219.529C599.765 214.23 594.751 210.197 588.211 207.336L585.806 212.832ZM597.915 222.699C600.541 226.849 601.883 231.622 601.883 237.111H607.883C607.883 230.588 606.271 224.684 602.986 219.491L597.915 222.699ZM601.883 237.111C601.883 243.333 600.51 248.482 597.901 252.69L603 255.852C606.301 250.527 607.883 244.236 607.883 237.111H601.883ZM597.901 252.69C595.337 256.826 591.305 260.13 585.571 262.512L587.873 268.052C594.533 265.286 599.653 261.25 603 255.852L597.901 252.69ZM585.593 262.503C579.979 264.783 572.489 266 562.984 266V272C572.928 272 581.263 270.738 587.851 268.061L585.593 262.503ZM562.984 266H535.099V272H562.984V266ZM562.412 254.268C569.072 254.268 574.672 253.184 578.93 250.718L575.924 245.526C572.938 247.255 568.527 248.268 562.412 248.268V254.268ZM578.901 250.735C583.791 247.977 586.004 243.146 586.004 237.111H580.004C580.004 241.563 578.5 244.073 575.953 245.509L578.901 250.735ZM586.004 237.111C586.004 233.052 585.044 229.458 582.66 226.81L578.2 230.824C579.249 231.989 580.004 233.925 580.004 237.111H586.004ZM582.716 226.874C580.54 224.314 577.428 222.776 573.742 222.018L572.532 227.894C575.33 228.47 577.079 229.507 578.144 230.76L582.716 226.874ZM573.824 222.036C570.292 221.205 566.139 220.812 561.411 220.812V226.812C565.835 226.812 569.5 227.182 572.45 227.876L573.824 222.036ZM561.411 220.812H556.692V226.812H561.411V220.812ZM553.692 223.812V251.268H559.692V223.812H553.692ZM556.692 254.268H562.412V248.268H556.692V254.268ZM620.324 269V166.898H614.324V269H620.324ZM617.324 169.898H638.917V163.898H617.324V169.898ZM635.917 166.898V269H641.917V166.898H635.917ZM638.917 266H617.324V272H638.917V266Z" fill="white"/>
</svg>
