<svg width="700" height="140" viewBox="0 0 700 140" fill="none" xmlns="http://www.w3.org/2000/svg">
<g filter="url(#filter0_b_2_84)">
<rect width="700" height="140" rx="15" fill="#D8D8D8" fill-opacity="0.4"/>
</g>
<path d="M166.153 87L154.938 72.1193H152.415V87H145.034V52.0909H152.415V66.0341H153.898L165.489 52.0909H174.676L161.057 68.2841L175.307 87H166.153ZM188.876 87H180.966L193.018 52.0909H202.529L214.563 87H206.654L197.91 60.0682H197.637L188.876 87ZM188.381 73.2784H207.063V79.0398H188.381V73.2784ZM243.724 87L232.508 72.1193H229.985V87H222.605V52.0909H229.985V66.0341H231.468L243.059 52.0909H252.247L238.627 68.2841L252.877 87H243.724ZM300.248 66.9716V72.8864H285.197V66.9716H300.248ZM274.799 75.5625H282.146C282.271 77.5625 282.896 79.0682 284.021 80.0795C285.146 81.0909 286.81 81.5966 289.015 81.5966C290.81 81.5966 292.236 81.1761 293.293 80.3352C294.35 79.4943 295.111 78.2841 295.577 76.7045C296.043 75.1136 296.276 73.2102 296.276 70.9943V68.1648C296.276 65.8807 296.009 63.9545 295.475 62.3864C294.952 60.8068 294.151 59.6136 293.072 58.8068C292.003 58 290.634 57.5966 288.964 57.5966C287.316 57.5966 286.009 57.8466 285.043 58.3466C284.077 58.8466 283.373 59.5625 282.93 60.4943C282.486 61.4148 282.214 62.5284 282.111 63.8352H274.765C274.992 61.5398 275.651 59.4716 276.742 57.6307C277.844 55.7784 279.407 54.3125 281.43 53.233C283.464 52.1534 285.975 51.6136 288.964 51.6136C291.93 51.6136 294.503 52.2898 296.685 53.642C298.867 54.9943 300.555 56.9091 301.748 59.3864C302.941 61.8636 303.538 64.7955 303.538 68.1818V71.0114C303.538 74.3977 302.952 77.3239 301.782 79.7898C300.623 82.2443 298.958 84.142 296.788 85.483C294.617 86.8125 292.026 87.4773 289.015 87.4773C286.14 87.4773 283.674 86.9773 281.617 85.9773C279.56 84.9659 277.952 83.5682 276.793 81.7841C275.634 79.9886 274.969 77.9148 274.799 75.5625ZM309.905 58.1761V52.0909H338.575V58.1761H327.887V87H320.592V58.1761H309.905ZM377.622 69.5455C377.622 73.3523 376.901 76.5909 375.458 79.2614C374.026 81.9318 372.071 83.9716 369.594 85.3807C367.128 86.7784 364.355 87.4773 361.276 87.4773C358.174 87.4773 355.389 86.7727 352.924 85.3636C350.458 83.9545 348.509 81.9148 347.077 79.2443C345.645 76.5739 344.929 73.3409 344.929 69.5455C344.929 65.7386 345.645 62.5 347.077 59.8295C348.509 57.1591 350.458 55.125 352.924 53.7273C355.389 52.3182 358.174 51.6136 361.276 51.6136C364.355 51.6136 367.128 52.3182 369.594 53.7273C372.071 55.125 374.026 57.1591 375.458 59.8295C376.901 62.5 377.622 65.7386 377.622 69.5455ZM370.139 69.5455C370.139 67.0795 369.77 65 369.031 63.3068C368.304 61.6136 367.276 60.3295 365.946 59.4545C364.617 58.5795 363.06 58.142 361.276 58.142C359.492 58.142 357.935 58.5795 356.605 59.4545C355.276 60.3295 354.242 61.6136 353.503 63.3068C352.776 65 352.412 67.0795 352.412 69.5455C352.412 72.0114 352.776 74.0909 353.503 75.7841C354.242 77.4773 355.276 78.7614 356.605 79.6364C357.935 80.5114 359.492 80.9489 361.276 80.9489C363.06 80.9489 364.617 80.5114 365.946 79.6364C367.276 78.7614 368.304 77.4773 369.031 75.7841C369.77 74.0909 370.139 72.0114 370.139 69.5455ZM401.879 87V52.0909H425.044V58.1761H409.26V64.9943H414.936C417.697 64.9943 420.078 65.4432 422.078 66.3409C424.089 67.2273 425.64 68.483 426.731 70.108C427.822 71.733 428.368 73.6477 428.368 75.8523C428.368 78.0455 427.822 79.983 426.731 81.6648C425.64 83.3352 424.089 84.642 422.078 85.5852C420.078 86.5284 417.697 87 414.936 87H401.879ZM409.26 81.0682H414.936C416.254 81.0682 417.368 80.8295 418.277 80.3523C419.186 79.8636 419.873 79.2216 420.339 78.4261C420.817 77.6193 421.055 76.7386 421.055 75.7841C421.055 74.3977 420.527 73.2273 419.47 72.2727C418.425 71.3068 416.913 70.8239 414.936 70.8239H409.26V81.0682ZM441.843 64.9943H450.161C452.934 64.9943 455.32 65.4432 457.32 66.3409C459.331 67.2273 460.882 68.483 461.973 70.108C463.064 71.733 463.604 73.6477 463.593 75.8523C463.604 78.0455 463.064 79.983 461.973 81.6648C460.882 83.3352 459.331 84.642 457.32 85.5852C455.32 86.5284 452.934 87 450.161 87H437.121V52.0909H444.485V81.0682H450.161C451.49 81.0682 452.61 80.8295 453.519 80.3523C454.428 79.8636 455.115 79.2216 455.581 78.4261C456.059 77.6193 456.292 76.7386 456.28 75.7841C456.292 74.3977 455.769 73.2273 454.712 72.2727C453.667 71.3068 452.149 70.8239 450.161 70.8239H441.843V64.9943ZM473.803 52.0909V87H466.439V52.0909H473.803ZM481.823 87V81.0682L482.812 80.983C484.085 80.8807 485.113 80.3977 485.897 79.5341C486.681 78.6591 487.266 77.267 487.653 75.358C488.051 73.4375 488.306 70.858 488.42 67.6193L488.999 52.0909H512.693V87H505.516V58.0057H495.852L495.306 70.1591C495.124 74.0682 494.659 77.2614 493.909 79.7386C493.17 82.2159 491.988 84.0455 490.363 85.2273C488.749 86.4091 486.539 87 483.732 87H481.823ZM554.697 69.5455C554.697 73.3523 553.976 76.5909 552.533 79.2614C551.101 81.9318 549.146 83.9716 546.669 85.3807C544.203 86.7784 541.43 87.4773 538.351 87.4773C535.249 87.4773 532.464 86.7727 529.999 85.3636C527.533 83.9545 525.584 81.9148 524.152 79.2443C522.72 76.5739 522.004 73.3409 522.004 69.5455C522.004 65.7386 522.72 62.5 524.152 59.8295C525.584 57.1591 527.533 55.125 529.999 53.7273C532.464 52.3182 535.249 51.6136 538.351 51.6136C541.43 51.6136 544.203 52.3182 546.669 53.7273C549.146 55.125 551.101 57.1591 552.533 59.8295C553.976 62.5 554.697 65.7386 554.697 69.5455ZM547.214 69.5455C547.214 67.0795 546.845 65 546.106 63.3068C545.379 61.6136 544.351 60.3295 543.021 59.4545C541.692 58.5795 540.135 58.142 538.351 58.142C536.567 58.142 535.01 58.5795 533.68 59.4545C532.351 60.3295 531.317 61.6136 530.578 63.3068C529.851 65 529.487 67.0795 529.487 69.5455C529.487 72.0114 529.851 74.0909 530.578 75.7841C531.317 77.4773 532.351 78.7614 533.68 79.6364C535.01 80.5114 536.567 80.9489 538.351 80.9489C540.135 80.9489 541.692 80.5114 543.021 79.6364C544.351 78.7614 545.379 77.4773 546.106 75.7841C546.845 74.0909 547.214 72.0114 547.214 69.5455Z" fill="white"/>
<defs>
<filter id="filter0_b_2_84" x="-30" y="-30" width="760" height="200" filterUnits="userSpaceOnUse" color-interpolation-filters="sRGB">
<feFlood flood-opacity="0" result="BackgroundImageFix"/>
<feGaussianBlur in="BackgroundImageFix" stdDeviation="15"/>
<feComposite in2="SourceAlpha" operator="in" result="effect1_backgroundBlur_2_84"/>
<feBlend mode="normal" in="SourceGraphic" in2="effect1_backgroundBlur_2_84" result="shape"/>
</filter>
</defs>
</svg>
